<?xml version="1.0" encoding="UTF-8" standalone="no"?>
<!-- Created with Inkscape (http://www.inkscape.org/) -->

<svg
   width="800"
   height="800"
   viewBox="0 0 211.66666 211.66667"
   version="1.1"
   id="svg5"
   xml:space="preserve"
   inkscape:version="1.2.2 (b0a8486541, 2022-12-01)"
   sodipodi:docname="nlp-chunk.svg"
   xmlns:inkscape="http://www.inkscape.org/namespaces/inkscape"
   xmlns:sodipodi="http://sodipodi.sourceforge.net/DTD/sodipodi-0.dtd"
   xmlns="http://www.w3.org/2000/svg"
   xmlns:svg="http://www.w3.org/2000/svg"
   xmlns:rdf="http://www.w3.org/1999/02/22-rdf-syntax-ns#"
   xmlns:cc="http://creativecommons.org/ns#"
   xmlns:dc="http://purl.org/dc/elements/1.1/"><title
     id="title327">Orange3 Natural Language Processing</title><sodipodi:namedview
     id="namedview7"
     pagecolor="#ffffff"
     bordercolor="#000000"
     borderopacity="0.25"
     inkscape:showpageshadow="2"
     inkscape:pageopacity="0.0"
     inkscape:pagecheckerboard="0"
     inkscape:deskcolor="#d1d1d1"
     inkscape:document-units="mm"
     showgrid="false"
     inkscape:zoom="0.75811588"
     inkscape:cx="358.12467"
     inkscape:cy="462.33038"
     inkscape:window-width="1920"
     inkscape:window-height="1029"
     inkscape:window-x="0"
     inkscape:window-y="0"
     inkscape:window-maximized="1"
     inkscape:current-layer="layer1" /><defs
     id="defs2" /><g
     inkscape:label="Layer 1"
     inkscape:groupmode="layer"
     id="layer1"><path
       style="fill:#000000;stroke-width:1.96383"
       d="m 77.186078,204.02779 c -2.675118,-4.39574 -4.252348,-5.26988 -7.335518,-4.06575 -5.745567,2.24401 -15.173161,2.15405 -13.760744,-0.13137 0.682784,-1.10482 -0.08759,-1.44729 -1.787811,-0.79486 -3.575599,1.37218 -12.203961,-7.42585 -22.354115,-22.79358 -14.376169,-21.76602 -8.611261,-42.60646 17.179953,-62.10629 11.97265,-9.0521 17.342577,-18.245734 17.73908,-30.370395 0.02079,-0.636839 -6.145326,-2.263303 -13.702581,-3.613876 -7.557254,-1.350574 -14.271046,-3.314088 -14.919524,-4.363314 -0.648492,-1.0493 -3.398582,-2.75162 -6.111332,-3.783032 -8.943812,-3.40041 -2.032534,-7.701672 12.375151,-7.701672 13.357827,0 30.251506,-6.274646 30.251506,-11.23598 0,-1.428879 3.623282,-9.804353 8.051726,-18.612107 4.503188,-8.956496 8.051725,-18.834628 8.051725,-22.413917 0,-7.5028997 5.49498,-13.4708547 10.758546,-11.68451374 9.77425,3.31720404 18.30618,16.02912274 18.30618,27.27482574 0,6.727857 0,6.727857 10.77068,7.62099 11.02941,0.914658 19.66858,5.985175 17.92768,10.522023 -0.49359,1.286667 -0.052,3.186942 0.98562,4.222734 5.21345,5.213471 -4.15661,15.960021 -15.27093,17.51419 -12.1807,1.703284 -13.25976,2.286089 -10.46606,5.652281 1.33402,1.607388 4.57048,2.922483 7.19214,2.922483 2.62164,0 7.3819,1.35243 10.57835,3.005391 4.36502,2.257217 6.78501,2.484489 9.72164,0.912803 2.7753,-1.48529 5.06147,-1.476234 7.87817,0.02969 2.18256,1.168058 4.73785,1.648063 5.6785,1.066743 2.92106,-1.805342 21.614,22.888803 25.93441,34.260533 5.37691,14.15245 4.40392,39.53376 -1.89826,49.51677 -2.24038,3.54893 -5.89299,9.7665 -8.11696,13.81689 -2.2239,4.05045 -4.90931,7.3644 -5.96751,7.3644 -1.05814,0 -3.69137,1.76748 -5.85157,3.92769 -3.5277,3.52763 -6.53829,4.2159 -20.79746,4.75448 -2.25766,0.0854 -5.35071,1.07534 -6.87341,2.20013 -3.59561,2.65601 -11.377,6.20421 -17.21105,7.84797 -6.0312,1.69935 -1.03386,-5.8299 15.90747,-23.96698 25.92764,-27.75772 28.90298,-48.42294 10.51413,-73.02548 -13.70553,-18.336816 -24.74408,-24.180299 -24.74408,-13.098851 0,6.446921 -5.74706,28.350991 -9.20499,35.083311 -1.57717,3.07064 -2.43409,6.01649 -1.90428,6.54637 0.97767,0.97761 -4.73325,13.82335 -13.49587,30.35682 -4.823508,9.10101 -4.823508,9.10101 -0.601,19.26156 8.1779,19.67811 -12.665592,35.7632 -23.427616,18.07934 z m -15.981679,-50.3451 c -0.531664,-19.87042 -1.218894,-23.37304 -3.774556,-19.23789 -0.773336,1.25126 -3.818325,3.19222 -6.766639,4.31314 -7.077583,2.6909 -6.903336,7.09883 1.021882,25.8504 8.04587,19.03704 10.253237,16.50356 9.519313,-10.92565 z m 34.007448,-28.49573 c 3.778074,-4.44904 14.921033,-29.461902 13.124963,-29.461902 -7.2276,0 -17.528275,12.063942 -18.749039,21.958562 -0.708762,5.74453 -1.743181,13.09587 -2.298723,16.33617 -1.010079,5.89152 -1.010079,5.89152 2.203746,0.005 1.7676,-3.23786 4.341172,-7.21469 5.719053,-8.83722 z M 110.1092,75.857606 c 0,-2.053101 -0.62645,-2.124652 -4.74901,-0.542575 -4.50911,1.730303 -3.81641,4.517476 0.82132,3.304661 2.16021,-0.564842 3.92769,-1.807792 3.92769,-2.761938 z"
       id="path323" /><rect
       style="fill:#ffffff;stroke-width:2.4;stroke-linejoin:bevel"
       id="rect12343"
       width="36.550304"
       height="1.559051"
       x="83.940239"
       y="25.890293" /><rect
       style="fill:#ffffff;stroke-width:3.47756;stroke-linejoin:bevel"
       id="rect12343-9"
       width="76.739143"
       height="1.559051"
       x="74.393639"
       y="51.893532" /><rect
       style="fill:#ffffff;stroke-width:4.06363;stroke-linejoin:bevel"
       id="rect12343-9-6"
       width="104.78407"
       height="1.559051"
       x="66.249451"
       y="84.893417" /><rect
       style="fill:#ffffff;stroke-width:4.68932;stroke-linejoin:bevel"
       id="rect12343-9-4"
       width="139.53662"
       height="1.559051"
       x="50.26981"
       y="111.49234" /><rect
       style="fill:#ffffff;stroke-width:5.1388;stroke-linejoin:bevel"
       id="rect12343-9-3"
       width="167.5681"
       height="1.559051"
       x="26.714458"
       y="138.84656" /><rect
       style="fill:#ffffff;stroke-width:5.03245;stroke-linejoin:bevel"
       id="rect12343-9-33"
       width="160.70424"
       height="1.559051"
       x="26.862991"
       y="167.06047" /><rect
       style="fill:#ffffff;stroke-width:4.41832;stroke-linejoin:bevel"
       id="rect12343-9-8"
       width="123.87418"
       height="1.559051"
       x="43.541523"
       y="191.75491" /></g><metadata
     id="metadata325"><rdf:RDF><cc:Work
         rdf:about=""><dc:title>Orange3 Natural Language Processing</dc:title><dc:creator><cc:Agent><dc:title>Chris Lee</dc:title></cc:Agent></dc:creator><dc:rights><cc:Agent><dc:title>CC-BY-NC-SA-4.0</dc:title></cc:Agent></dc:rights></cc:Work></rdf:RDF></metadata></svg>
